<svg width="374" height="146" viewBox="0 0 374 146" fill="none" xmlns="http://www.w3.org/2000/svg">
<path d="M113.469 79.7812C117.156 79.7812 120.781 80.25 124.344 81.1875C127.969 82.0625 130.875 83.25 133.062 84.75V101.719C130.375 100.156 127.719 98.8125 125.094 97.6875C122.469 96.5 119.375 95.9062 115.812 95.9062C113.75 95.9062 111.969 96.2188 110.469 96.8438C108.969 97.4688 108.219 98.5 108.219 99.9375C108.219 101.5 109.125 102.688 110.938 103.5C112.75 104.25 114.969 105.125 117.594 106.125L124.344 108.656C128.906 110.406 132.125 112.781 134 115.781C135.938 118.781 136.906 121.781 136.906 124.781C136.906 128.781 135.75 132.344 133.438 135.469C131.125 138.531 128 140.969 124.062 142.781C120.125 144.531 115.719 145.406 110.844 145.406C107.094 145.406 103.375 144.75 99.6875 143.438C96 142.125 92.7812 140.5 90.0312 138.562V121.594C93.0312 123.844 96.25 125.688 99.6875 127.125C103.188 128.562 106.688 129.281 110.188 129.281C112.375 129.281 114.125 129.031 115.438 128.531C116.812 127.969 117.5 127.031 117.5 125.719C117.5 124.781 117 123.969 116 123.281C115 122.594 113.656 122 111.969 121.5L103.062 118.688C99.5625 117.562 96.8438 116.031 94.9062 114.094C92.9688 112.156 91.625 110 90.875 107.625C90.125 105.188 89.75 102.719 89.75 100.219C89.75 95.7812 90.875 92.0625 93.125 89.0625C95.375 86 98.3125 83.6875 101.938 82.125C105.562 80.5625 109.406 79.7812 113.469 79.7812ZM216.5 96.1875L200.094 144H187.625L178.344 115.781L169.062 144H156.406L140.188 96.1875H156.875L163.906 119.438L171.969 96.1875H184.719L192.781 119.438L199.812 96.1875H216.5ZM245.656 94.7812C250.156 94.7812 254.156 95.7812 257.656 97.7812C261.156 99.7812 263.875 102.594 265.812 106.219C267.812 109.781 268.812 114.031 268.812 118.969V124.5H236.281C236.969 126.812 238.344 128.531 240.406 129.656C242.469 130.781 244.844 131.344 247.531 131.344C251.156 131.344 254.281 130.844 256.906 129.844C259.594 128.781 261.594 127.875 262.906 127.125V140.906C261.281 141.906 259.031 142.906 256.156 143.906C253.344 144.906 250.156 145.406 246.594 145.406C243.219 145.406 239.938 144.844 236.75 143.719C233.625 142.594 230.812 140.969 228.312 138.844C225.812 136.719 223.844 134.156 222.406 131.156C220.969 128.094 220.25 124.656 220.25 120.844C220.25 116.094 221.344 111.75 223.531 107.812C225.781 103.875 228.812 100.719 232.625 98.3438C236.5 95.9688 240.844 94.7812 245.656 94.7812ZM245.188 108.094C243.125 108.094 241.344 108.656 239.844 109.781C238.344 110.844 237.25 112.5 236.562 114.75H253.531C253.531 112.5 252.656 110.844 250.906 109.781C249.219 108.656 247.312 108.094 245.188 108.094ZM296 94.7812C298.5 94.7812 300.938 95.3438 303.312 96.4688C305.75 97.5312 307.75 98.9062 309.312 100.594V96.1875H325.438V144H309.312V136.031C308.125 138.656 306.312 140.875 303.875 142.688C301.438 144.5 298.5 145.406 295.062 145.406C291.5 145.406 288.156 144.5 285.031 142.688C281.906 140.875 279.344 138.094 277.344 134.344C275.406 130.531 274.438 125.75 274.438 120C274.438 114.625 275.406 110.062 277.344 106.312C279.344 102.562 281.969 99.7188 285.219 97.7812C288.531 95.7812 292.125 94.7812 296 94.7812ZM299.375 110.531C297.062 110.531 295.125 111.469 293.562 113.344C292.062 115.219 291.312 117.438 291.312 120C291.312 122.562 292.094 124.719 293.656 126.469C295.219 128.219 297.281 129.094 299.844 129.094C301.219 129.094 302.625 128.75 304.062 128.062C305.5 127.312 306.719 126.219 307.719 124.781C308.781 123.281 309.312 121.375 309.312 119.062V114.469C307.938 113.344 306.375 112.406 304.625 111.656C302.938 110.906 301.188 110.531 299.375 110.531ZM359.938 82.125V96.1875H372.5V108.844H359.938V122.25C359.938 124.562 360.406 126.406 361.344 127.781C362.344 129.094 363.719 129.75 365.469 129.75C368.219 129.75 370.75 129.062 373.062 127.688V140.25C372.062 141.625 370.469 142.844 368.281 143.906C366.156 144.906 363.531 145.406 360.406 145.406C357.406 145.406 354.656 144.719 352.156 143.344C349.656 141.969 347.625 140 346.062 137.438C344.562 134.875 343.812 131.781 343.812 128.156V108.844H335.75V99C338.812 98.1875 341.812 96.4375 344.75 93.75C347.75 91 349.938 87.125 351.312 82.125H359.938Z" fill="black"/>
<path d="M45.6047 119.764C46.1005 120.302 46.3641 121.013 46.3383 121.744C46.3125 122.475 45.9993 123.166 45.467 123.667L39.4812 129.264C38.9468 129.76 38.237 130.025 37.5079 129.998C36.7788 129.972 36.09 129.657 35.5927 129.123L0.733962 91.5555C0.238596 91.0177 -0.0245172 90.3062 0.00180016 89.5755C0.0281176 88.8448 0.341738 88.154 0.87451 87.6533L6.86849 82.0644C7.13298 81.8182 7.44339 81.6265 7.78199 81.5003C8.1206 81.3741 8.48075 81.3158 8.84187 81.3289C9.20299 81.342 9.558 81.426 9.8866 81.5764C10.2152 81.7267 10.511 81.9403 10.757 82.2049L45.6047 119.764ZM90.0842 49.0769C90.5796 49.6147 90.8427 50.3262 90.8164 51.0569C90.79 51.7876 90.4764 52.4784 89.9436 52.9791L52.2712 88.1714C51.7367 88.6679 51.0269 88.9321 50.2978 88.9057C49.5687 88.8794 48.8799 88.5647 48.3826 88.0308L39.3903 78.3275C38.8949 77.7897 38.6318 77.0781 38.6581 76.3474C38.6845 75.6167 38.9981 74.9259 39.5309 74.4252L77.1951 39.233C77.4593 38.9868 77.7695 38.7952 78.1079 38.669C78.4463 38.5429 78.8062 38.4847 79.1671 38.4977C79.528 38.5108 79.8828 38.5948 80.2111 38.7451C80.5395 38.8954 80.835 39.1089 81.0808 39.3735L90.0842 49.0769V49.0769ZM58.4222 107.785C59.4529 108.895 59.3895 110.651 58.2817 111.687L52.2877 117.281C52.0232 117.528 51.7128 117.719 51.3742 117.846C51.0356 117.972 50.6754 118.03 50.3143 118.017C49.9532 118.004 49.5982 117.92 49.2696 117.769C48.941 117.619 48.6452 117.406 48.3992 117.141L13.5597 79.5731C13.064 79.0357 12.8004 78.3243 12.8262 77.5936C12.852 76.8629 13.1651 76.172 13.6975 75.6708L19.6804 70.0792C20.2149 69.5826 20.9247 69.3185 21.6538 69.3448C22.3829 69.3712 23.0717 69.6859 23.569 70.2197L58.4222 107.785ZM116.469 50.4245C116.964 50.9626 117.226 51.6744 117.2 52.4051C117.173 53.1358 116.859 53.8264 116.325 54.3268L110.334 59.9211C109.8 60.4182 109.09 60.6829 108.36 60.6571C107.631 60.6312 106.941 60.317 106.443 59.7833L71.5979 22.2239C71.1016 21.6867 70.8375 20.9752 70.8633 20.2443C70.8891 19.5134 71.2027 18.8223 71.7357 18.3216L77.7435 12.7134C78.0078 12.4673 78.3179 12.2756 78.6563 12.1495C78.9947 12.0233 79.3546 11.9651 79.7155 11.9782C80.0764 11.9912 80.4312 12.0753 80.7596 12.2256C81.0879 12.3758 81.3835 12.5894 81.6292 12.854L116.469 50.4245ZM129.267 38.4641C129.762 39.0027 130.024 39.7145 129.998 40.4455C129.972 41.1764 129.659 41.8675 129.126 42.3691L123.146 47.9607C122.882 48.2071 122.572 48.3989 122.234 48.5253C121.895 48.6517 121.536 48.7101 121.175 48.6974C120.814 48.6846 120.459 48.6007 120.131 48.4507C119.802 48.3007 119.506 48.0873 119.26 47.8229L84.4209 10.2469C83.9257 9.70871 83.6625 8.99705 83.6883 8.26613C83.7141 7.5352 84.0268 6.84387 84.5587 6.34189L90.5444 0.739244C90.8081 0.49268 91.1179 0.300607 91.4559 0.174045C91.794 0.0474826 92.1538 -0.0110773 92.5145 0.00172496C92.8753 0.0145272 93.23 0.0984397 93.5583 0.248648C93.8865 0.398856 94.1819 0.612403 94.4274 0.877037L129.267 38.4641V38.4641Z" fill="black"/>
</svg>
